<?xml version="1.0" standalone="no"?>
<!DOCTYPE svg PUBLIC "-//W3C//DTD SVG 20010904//EN"
 "http://www.w3.org/TR/2001/REC-SVG-20010904/DTD/svg10.dtd">
<svg version="1.0" xmlns="http://www.w3.org/2000/svg"
 width="512.000000pt" height="512.000000pt" viewBox="0 0 512.000000 512.000000"
 preserveAspectRatio="xMidYMid meet">
<metadata>
Created by potrace 1.14, written by Peter Selinger 2001-2017
</metadata>
<g transform="translate(0.000000,512.000000) scale(0.100000,-0.100000)"
fill="#000000" stroke="none">
<path d="M2515 3832 c-41 -9 -1835 -912 -1854 -934 -12 -12 -21 -32 -21 -44 0
-60 12 -68 329 -227 l306 -154 5 -314 c5 -344 6 -345 71 -414 21 -23 30 -44
34 -80 6 -49 32 -98 66 -123 15 -10 18 -28 17 -105 0 -181 0 -186 27 -212 29
-30 74 -32 106 -6 23 18 24 27 29 164 l5 145 119 -58 c148 -72 290 -121 451
-156 77 -17 245 -34 350 -37 39 -1 230 12 275 19 114 16 300 67 405 111 257
106 541 306 586 411 17 39 19 73 20 350 l0 307 295 145 c162 80 306 155 320
167 33 30 33 86 0 116 -13 12 -433 226 -933 476 -912 455 -941 468 -1008 453z"/>
</g>
</svg>
